<svg width="26" height="26" viewBox="0 0 26 26" fill="none" xmlns="http://www.w3.org/2000/svg">
<path d="M15.1666 9.53337C15.1666 9.42504 15.2028 9.32122 15.275 9.22192C15.3472 9.12261 15.4285 9.0549 15.5187 9.01879C16.0604 8.82018 16.6156 8.66671 17.1844 8.55837C17.7531 8.45004 18.3444 8.39587 18.9583 8.39587C19.3555 8.39587 19.7437 8.41844 20.1229 8.46358C20.5021 8.50872 20.8722 8.57643 21.2333 8.66671C21.3416 8.70282 21.441 8.77053 21.5312 8.86983C21.6215 8.96914 21.6666 9.08199 21.6666 9.20837C21.6666 9.40699 21.5989 9.56046 21.4635 9.66879C21.3281 9.77712 21.1611 9.80421 20.9625 9.75004C20.6555 9.65976 20.335 9.59205 20.001 9.54692C19.667 9.50178 19.3194 9.47921 18.9583 9.47921C18.4347 9.47921 17.9291 9.52886 17.4416 9.62817C16.9541 9.72747 16.4757 9.87643 16.0062 10.075C15.7535 10.1653 15.5503 10.1608 15.3969 10.0615C15.2434 9.96219 15.1666 9.78615 15.1666 9.53337ZM15.1666 15.4917C15.1666 15.3834 15.2028 15.275 15.275 15.1667C15.3472 15.0584 15.4285 14.9862 15.5187 14.95C16.0604 14.7514 16.6156 14.6025 17.1844 14.5032C17.7531 14.4039 18.3444 14.3542 18.9583 14.3542C19.3555 14.3542 19.7437 14.3768 20.1229 14.4219C20.5021 14.4671 20.8722 14.5348 21.2333 14.625C21.3416 14.6612 21.441 14.7289 21.5312 14.8282C21.6215 14.9275 21.6666 15.0403 21.6666 15.1667C21.6666 15.3653 21.5989 15.5188 21.4635 15.6271C21.3281 15.7355 21.1611 15.7625 20.9625 15.7084C20.6555 15.6181 20.335 15.5504 20.001 15.5052C19.667 15.4601 19.3194 15.4375 18.9583 15.4375C18.4347 15.4375 17.9291 15.4827 17.4416 15.573C16.9541 15.6632 16.4757 15.8077 16.0062 16.0063C15.7535 16.0966 15.5503 16.0966 15.3969 16.0063C15.2434 15.916 15.1666 15.7445 15.1666 15.4917ZM15.1666 12.5125C15.1666 12.4042 15.2028 12.3004 15.275 12.2011C15.3472 12.1018 15.4285 12.0341 15.5187 11.998C16.0604 11.7993 16.6156 11.6459 17.1844 11.5375C17.7531 11.4292 18.3444 11.375 18.9583 11.375C19.3555 11.375 19.7437 11.3976 20.1229 11.4427C20.5021 11.4879 20.8722 11.5556 21.2333 11.6459C21.3416 11.682 21.441 11.7497 21.5312 11.849C21.6215 11.9483 21.6666 12.0612 21.6666 12.1875C21.6666 12.3862 21.5989 12.5396 21.4635 12.648C21.3281 12.7563 21.1611 12.7834 20.9625 12.7292C20.6555 12.6389 20.335 12.5712 20.001 12.5261C19.667 12.4809 19.3194 12.4584 18.9583 12.4584C18.4347 12.4584 17.9291 12.508 17.4416 12.6073C16.9541 12.7066 16.4757 12.8556 16.0062 13.0542C15.7535 13.1445 15.5503 13.14 15.3969 13.0407C15.2434 12.9414 15.1666 12.7653 15.1666 12.5125ZM6.71665 17.875C7.69165 17.875 8.63505 17.9879 9.54685 18.2136C10.4587 18.4393 11.3569 18.7778 12.2416 19.2292V7.66462C11.4291 7.12296 10.5489 6.70317 9.60102 6.40525C8.65311 6.10733 7.69165 5.95837 6.71665 5.95837C6.03054 5.95837 5.35797 6.04414 4.69894 6.21567C4.03991 6.38719 3.37637 6.59935 2.70831 6.85212V18.6063C3.26804 18.3535 3.90449 18.1684 4.61769 18.0511C5.33088 17.9337 6.03054 17.875 6.71665 17.875ZM13.8666 19.2292C14.7694 18.7778 15.6541 18.4393 16.5208 18.2136C17.3875 17.9879 18.3083 17.875 19.2833 17.875C19.9694 17.875 20.6781 17.9292 21.4094 18.0375C22.1406 18.1459 22.768 18.2903 23.2916 18.4709V6.85212C22.6778 6.54518 22.0278 6.31948 21.3416 6.17504C20.6555 6.0306 19.9694 5.95837 19.2833 5.95837C18.3083 5.95837 17.3649 6.10733 16.4531 6.40525C15.5413 6.70317 14.6791 7.12296 13.8666 7.66462V19.2292ZM13.0541 21.3688C12.9097 21.3688 12.7788 21.3552 12.6614 21.3282C12.5441 21.3011 12.4403 21.2514 12.35 21.1792C11.5014 20.6556 10.5986 20.2493 9.64165 19.9605C8.6847 19.6716 7.7097 19.5271 6.71665 19.5271C6.04859 19.5271 5.39859 19.6084 4.76665 19.7709C4.1347 19.9334 3.50276 20.132 2.87081 20.3667C2.45554 20.5653 2.0538 20.5382 1.6656 20.2855C1.27741 20.0327 1.08331 19.6716 1.08331 19.2021V6.66254C1.08331 6.39171 1.14651 6.14344 1.2729 5.91775C1.39929 5.69205 1.58887 5.51601 1.84165 5.38962C2.59998 5.02851 3.38991 4.76219 4.21144 4.59067C5.03297 4.41914 5.86804 4.33337 6.71665 4.33337C7.85415 4.33337 8.96005 4.48685 10.0344 4.79379C11.1087 5.10074 12.1153 5.57018 13.0541 6.20212C13.975 5.57018 14.9635 5.10074 16.0198 4.79379C17.076 4.48685 18.1639 4.33337 19.2833 4.33337C20.1319 4.33337 20.9625 4.41914 21.775 4.59067C22.5875 4.76219 23.3729 5.02851 24.1312 5.38962C24.384 5.51601 24.5781 5.69205 24.7135 5.91775C24.8489 6.14344 24.9166 6.39171 24.9166 6.66254V19.2021C24.9166 19.7077 24.7135 20.0914 24.3073 20.3532C23.901 20.615 23.4993 20.6195 23.1021 20.3667C22.4882 20.1139 21.8653 19.9108 21.2333 19.7573C20.6014 19.6039 19.9514 19.5271 19.2833 19.5271C18.3083 19.5271 17.3514 19.6716 16.4125 19.9605C15.4736 20.2493 14.5889 20.6556 13.7583 21.1792C13.668 21.2514 13.5642 21.3011 13.4469 21.3282C13.3295 21.3552 13.1986 21.3688 13.0541 21.3688Z" fill="url(#paint0_linear_14_224)"/>
<defs>
<linearGradient id="paint0_linear_14_224" x1="13" y1="4.33337" x2="13" y2="21.3688" gradientUnits="userSpaceOnUse">
<stop stop-color="#260202"/>
<stop offset="1" stop-color="#983232"/>
</linearGradient>
</defs>
</svg>
