<svg width="32" height="32" viewBox="0 0 32 32" fill="none" xmlns="http://www.w3.org/2000/svg">
<path d="M16.6299 30C14.5167 30 12.566 29.64 10.7779 28.92C9.01693 28.1733 7.47267 27.1467 6.14514 25.84C4.8447 24.5333 3.82874 23.0133 3.09724 21.28C2.36575 19.52 2 17.6267 2 15.6C2 13.04 2.55539 10.7333 3.66618 8.68C4.77697 6.62667 6.33478 5 8.33962 3.8C10.3716 2.6 12.7286 2 15.4107 2C17.9574 2 20.0435 2.33333 21.6691 3C23.2946 3.64 24.4867 4.38667 25.2453 5.24C25.7871 5.90667 26.0987 6.77333 26.18 7.84C26.2612 8.90667 26.3019 9.89333 26.3019 10.8H25.0827C24.568 8.34666 23.6197 6.57333 22.238 5.48C20.8563 4.36 18.9869 3.8 16.6299 3.8C15.0044 3.8 13.6226 4.12 12.4848 4.76C11.374 5.4 10.4528 6.28 9.72134 7.4C9.01693 8.52 8.50218 9.78666 8.17707 11.2C7.85196 12.6133 7.68941 14.08 7.68941 15.6C7.68941 18.8267 8.08224 21.3733 8.86792 23.24C9.6807 25.1067 10.7644 26.44 12.119 27.24C13.4736 28.0133 14.9773 28.4 16.6299 28.4C17.8491 28.4 18.8921 28.3067 19.7591 28.12C20.626 27.9333 21.4117 27.68 22.1161 27.36V20.24C22.1161 19.68 22.1974 19.12 22.3599 18.56C22.5496 18 22.9153 17.48 23.4572 17C23.999 16.4933 24.7847 16.0933 25.8142 15.8C26.8708 15.5067 28.2661 15.36 30 15.36V16.36C29.0789 16.36 28.4151 16.6933 28.0087 17.36C27.6023 18.0267 27.3991 18.96 27.3991 20.16V27.32C25.8278 28.2533 24.1616 28.9333 22.4006 29.36C20.6396 29.7867 18.716 30 16.6299 30Z" fill="url(#paint0_linear_21_253)"/>
<defs>
<linearGradient id="paint0_linear_21_253" x1="16" y1="2" x2="16" y2="30" gradientUnits="userSpaceOnUse">
<stop stop-color="#260202"/>
<stop offset="1" stop-color="#983232"/>
</linearGradient>
</defs>
</svg>
