<svg width="50" height="52" viewBox="0 0 50 52" fill="none" xmlns="http://www.w3.org/2000/svg">
<path d="M16.7238 40.0602C16.7238 40.2618 16.4919 40.4231 16.1996 40.4231C15.8669 40.4533 15.6351 40.292 15.6351 40.0602C15.6351 39.8586 15.8669 39.6973 16.1593 39.6973C16.4617 39.667 16.7238 39.8283 16.7238 40.0602ZM13.5887 39.6066C13.5181 39.8082 13.7198 40.04 14.0222 40.1005C14.2843 40.2013 14.5867 40.1005 14.6472 39.8989C14.7077 39.6973 14.5161 39.4654 14.2137 39.3747C13.9516 39.3041 13.6593 39.4049 13.5887 39.6066ZM18.0444 39.4352C17.752 39.5057 17.5504 39.6973 17.5806 39.9291C17.6109 40.1307 17.873 40.2618 18.1754 40.1912C18.4677 40.1207 18.6694 39.9291 18.6391 39.7275C18.6089 39.536 18.3367 39.4049 18.0444 39.4352ZM24.6774 0.806152C10.6956 0.806152 0 11.4211 0 25.4029C0 36.5824 7.03629 46.1489 17.0867 49.5158C18.377 49.7477 18.8306 48.9513 18.8306 48.2961C18.8306 47.6711 18.8004 44.2235 18.8004 42.1066C18.8004 42.1066 11.744 43.6187 10.2621 39.1025C10.2621 39.1025 9.1129 36.1691 7.45968 35.413C7.45968 35.413 5.15121 33.8303 7.62097 33.8606C7.62097 33.8606 10.131 34.0622 11.5121 36.4614C13.7198 40.3525 17.4194 39.2336 18.8609 38.5682C19.0927 36.9553 19.748 35.8364 20.4738 35.1711C14.8387 34.5461 9.15323 33.7295 9.15323 24.032C9.15323 21.2598 9.91936 19.8687 11.5323 18.0945C11.2702 17.4392 10.4133 14.7376 11.7944 11.2497C13.9012 10.5945 18.75 13.9715 18.75 13.9715C20.7661 13.407 22.9335 13.1146 25.0806 13.1146C27.2278 13.1146 29.3952 13.407 31.4113 13.9715C31.4113 13.9715 36.2601 10.5844 38.3669 11.2497C39.748 14.7477 38.8911 17.4392 38.629 18.0945C40.2419 19.8787 41.2298 21.2699 41.2298 24.032C41.2298 33.7598 35.2923 34.536 29.6573 35.1711C30.5847 35.9674 31.371 37.4795 31.371 39.8485C31.371 43.2457 31.3407 47.4493 31.3407 48.2759C31.3407 48.9312 31.8044 49.7275 33.0847 49.4957C43.1653 46.1489 50 36.5824 50 25.4029C50 11.4211 38.6593 0.806152 24.6774 0.806152ZM9.79839 35.5743C9.66734 35.6751 9.69758 35.907 9.86895 36.0985C10.0302 36.2598 10.2621 36.3303 10.3931 36.1993C10.5242 36.0985 10.494 35.8666 10.3226 35.6751C10.1613 35.5138 9.92943 35.4432 9.79839 35.5743ZM8.70968 34.7578C8.63911 34.8888 8.73992 35.0501 8.94153 35.1509C9.10282 35.2517 9.30444 35.2215 9.375 35.0803C9.44556 34.9493 9.34476 34.788 9.14314 34.6872C8.94153 34.6267 8.78024 34.657 8.70968 34.7578ZM11.9758 38.3465C11.8145 38.4775 11.875 38.7799 12.1069 38.9715C12.3387 39.2033 12.631 39.2336 12.7621 39.0723C12.8931 38.9412 12.8327 38.6388 12.631 38.4473C12.4093 38.2154 12.1069 38.1852 11.9758 38.3465ZM10.8266 36.8646C10.6653 36.9654 10.6653 37.2275 10.8266 37.4594C10.9879 37.6912 11.2601 37.792 11.3911 37.6912C11.5524 37.5602 11.5524 37.2981 11.3911 37.0662C11.25 36.8344 10.9879 36.7336 10.8266 36.8646Z" fill="#D9C6A3"/>
</svg>
