<svg width="26" height="26" viewBox="0 0 26 26" fill="none" xmlns="http://www.w3.org/2000/svg">
<path d="M14.3812 23.8333C13.966 23.8333 13.6635 23.6979 13.4739 23.427C13.2844 23.1562 13.2618 22.8222 13.4062 22.425L17.3875 11.8625C17.4958 11.5736 17.6944 11.3298 17.9833 11.1312C18.2722 10.9326 18.5701 10.8333 18.8771 10.8333C19.184 10.8333 19.4864 10.9326 19.7844 11.1312C20.0823 11.3298 20.2854 11.5736 20.3937 11.8625L24.4562 22.3166C24.6187 22.7319 24.6007 23.0885 24.4021 23.3864C24.2035 23.6843 23.8694 23.8333 23.4 23.8333C23.2014 23.8333 23.0118 23.7701 22.8312 23.6437C22.6507 23.5173 22.5243 23.3548 22.4521 23.1562L21.5583 20.4208H16.3583L15.3291 23.1833C15.2569 23.3638 15.1305 23.5173 14.95 23.6437C14.7694 23.7701 14.5798 23.8333 14.3812 23.8333ZM16.9541 18.525H20.8L18.9041 13.2708H18.85L16.9541 18.525ZM7.82706 9.26246C8.0979 9.7319 8.39581 10.1878 8.72081 10.6302C9.04581 11.0725 9.3979 11.5284 9.77706 11.9979C10.5896 11.1493 11.2666 10.2691 11.8083 9.35725C12.35 8.44544 12.8104 7.49301 13.1896 6.49996H2.16665C1.8597 6.49996 1.60241 6.39614 1.39477 6.1885C1.18713 5.98086 1.08331 5.72357 1.08331 5.41663C1.08331 5.10968 1.18713 4.85239 1.39477 4.64475C1.60241 4.43711 1.8597 4.33329 2.16665 4.33329H8.66665V3.24996C8.66665 2.94301 8.77047 2.68572 8.97811 2.47808C9.18574 2.27045 9.44304 2.16663 9.74998 2.16663C10.0569 2.16663 10.3142 2.27045 10.5219 2.47808C10.7295 2.68572 10.8333 2.94301 10.8333 3.24996V4.33329H17.3333C17.6403 4.33329 17.8975 4.43711 18.1052 4.64475C18.3128 4.85239 18.4166 5.10968 18.4166 5.41663C18.4166 5.72357 18.3128 5.98086 18.1052 6.1885C17.8975 6.39614 17.6403 6.49996 17.3333 6.49996H15.3562C14.959 7.74579 14.4309 8.96906 13.7719 10.1698C13.1128 11.3704 12.3048 12.5125 11.3479 13.5958L14.0021 16.277L13.1896 18.4708L9.74998 15.1666L5.06456 19.852C4.86595 20.0507 4.6222 20.15 4.33331 20.15C4.04442 20.15 3.80067 20.0416 3.60206 19.825C3.3854 19.6263 3.27706 19.3826 3.27706 19.0937C3.27706 18.8048 3.3854 18.552 3.60206 18.3354L8.36873 13.5687C7.89929 13.009 7.45692 12.4447 7.04165 11.876C6.62637 11.3073 6.2472 10.725 5.90415 10.1291C5.68748 9.7319 5.66942 9.38885 5.84998 9.09996C6.03054 8.81107 6.35554 8.66663 6.82498 8.66663C7.02359 8.66663 7.21769 8.72531 7.40727 8.84267C7.59686 8.96003 7.73679 9.09996 7.82706 9.26246Z" fill="url(#paint0_linear_14_222)"/>
<defs>
<linearGradient id="paint0_linear_14_222" x1="12.8246" y1="2.16663" x2="12.8246" y2="23.8333" gradientUnits="userSpaceOnUse">
<stop stop-color="#260202"/>
<stop offset="1" stop-color="#983232"/>
</linearGradient>
</defs>
</svg>
