<svg width="50" height="58" viewBox="0 0 50 58" fill="none" xmlns="http://www.w3.org/2000/svg">
<g clip-path="url(#clip0_15_236)">
<path d="M25.0111 15.7365C17.9129 15.7365 12.1874 21.4619 12.1874 28.5601C12.1874 35.6583 17.9129 41.3838 25.0111 41.3838C32.1093 41.3838 37.8348 35.6583 37.8348 28.5601C37.8348 21.4619 32.1093 15.7365 25.0111 15.7365ZM25.0111 36.8972C20.4241 36.8972 16.6741 33.1583 16.6741 28.5601C16.6741 23.9619 20.4129 20.2231 25.0111 20.2231C29.6093 20.2231 33.3482 23.9619 33.3482 28.5601C33.3482 33.1583 29.5982 36.8972 25.0111 36.8972ZM41.3504 15.2119C41.3504 16.8749 40.0111 18.203 38.3593 18.203C36.6964 18.203 35.3683 16.8637 35.3683 15.2119C35.3683 13.5601 36.7075 12.2208 38.3593 12.2208C40.0111 12.2208 41.3504 13.5601 41.3504 15.2119ZM49.8437 18.2476C49.654 14.2409 48.7388 10.6918 45.8035 7.76772C42.8794 4.84361 39.3303 3.92843 35.3236 3.72754C31.1941 3.49316 18.8169 3.49316 14.6874 3.72754C10.6919 3.91727 7.1428 4.83245 4.20754 7.75656C1.27227 10.6807 0.368251 14.2298 0.167358 18.2365C-0.0670166 22.3659 -0.0670166 34.7432 0.167358 38.8726C0.357091 42.8793 1.27227 46.4284 4.20754 49.3525C7.1428 52.2766 10.6808 53.1918 14.6874 53.3927C18.8169 53.6271 31.1941 53.6271 35.3236 53.3927C39.3303 53.203 42.8794 52.2878 45.8035 49.3525C48.7276 46.4284 49.6428 42.8793 49.8437 38.8726C50.0781 34.7432 50.0781 22.3771 49.8437 18.2476ZM44.5089 43.3034C43.6383 45.4909 41.9531 47.1762 39.7544 48.0579C36.462 49.3637 28.6495 49.0624 25.0111 49.0624C21.3727 49.0624 13.5491 49.3525 10.2678 48.0579C8.0803 47.1874 6.39504 45.5021 5.51334 43.3034C4.20754 40.011 4.50888 32.1985 4.50888 28.5601C4.50888 24.9217 4.2187 17.0981 5.51334 13.8168C6.38388 11.6293 8.06914 9.94406 10.2678 9.06236C13.5602 7.75656 21.3727 8.0579 25.0111 8.0579C28.6495 8.0579 36.4732 7.76772 39.7544 9.06236C41.9419 9.9329 43.6272 11.6182 44.5089 13.8168C45.8147 17.1092 45.5133 24.9217 45.5133 28.5601C45.5133 32.1985 45.8147 40.0222 44.5089 43.3034Z" fill="#D9C6A3"/>
</g>
<defs>
<clipPath id="clip0_15_236">
<rect width="50" height="57.1429" fill="white" transform="translate(0 -0.000244141)"/>
</clipPath>
</defs>
</svg>
