<svg width="159" height="34" viewBox="0 0 159 34" fill="none" xmlns="http://www.w3.org/2000/svg">
<path d="M3.84 32.64V7.20002C3.84 5.76002 3.632 4.60802 3.216 3.74402C2.832 2.84802 1.92 2.40002 0.48 2.40002H0V0.960022H5.76C6.88 0.960022 7.744 1.15202 8.352 1.53602C8.992 1.92002 9.44 2.56002 9.696 3.45602C9.952 4.35202 10.08 5.60002 10.08 7.20002V30.48H26.64V32.64H3.84Z" fill="#363636"/>
<path d="M38.4731 33.12C36.4891 33.12 34.8251 32.816 33.4811 32.208C32.1691 31.6 31.1931 30.64 30.5531 29.328C29.9131 28.016 29.5931 26.336 29.5931 24.288V16.32C29.5931 14.88 29.3851 13.728 28.9691 12.864C28.5851 11.968 27.6731 11.52 26.2331 11.52H25.7531V10.08H31.5131C32.6331 10.08 33.4971 10.272 34.1051 10.656C34.7451 11.04 35.1931 11.68 35.4491 12.576C35.7051 13.472 35.8331 14.72 35.8331 16.32V24.336C35.8331 26 35.9931 27.312 36.3131 28.272C36.6331 29.232 37.0971 29.92 37.7051 30.336C38.3131 30.752 39.0491 30.96 39.9131 30.96C40.6811 30.96 41.3531 30.784 41.9291 30.432C42.5051 30.08 42.9851 29.664 43.3691 29.184C43.7531 28.672 44.0411 28.224 44.2331 27.84V10.08H50.4731V32.64H46.3931L44.7131 30.48H44.4731C43.8651 31.152 43.0651 31.76 42.0731 32.304C41.0811 32.848 39.8811 33.12 38.4731 33.12Z" fill="#363636"/>
<path d="M57.1657 32.64V16.32C57.1657 14.88 56.9577 13.728 56.5417 12.864C56.1577 11.968 55.2458 11.52 53.8058 11.52H53.3257V10.08H59.0858C60.2057 10.08 61.0697 10.272 61.6777 10.656C62.3177 11.04 62.7658 11.68 63.0218 12.576C63.2778 13.472 63.4058 14.72 63.4058 16.32V32.64H57.1657ZM60.2858 7.48802C59.0698 7.48802 58.1578 7.12002 57.5498 6.38402C56.9738 5.64802 56.6857 4.80002 56.6857 3.84002C56.6857 3.00802 56.9417 2.35202 57.4538 1.87202C57.9658 1.39202 58.5897 1.15202 59.3257 1.15202C60.5417 1.15202 61.4378 1.52002 62.0138 2.25602C62.6218 2.99202 62.9258 3.84002 62.9258 4.80002C62.9258 5.63202 62.6698 6.28802 62.1577 6.76802C61.6457 7.24802 61.0218 7.48802 60.2858 7.48802Z" fill="#363636"/>
<path d="M77.1626 33.12C75.1786 33.12 73.5466 32.944 72.2666 32.592C71.0186 32.24 70.0746 31.76 69.4346 31.152C68.8586 30.608 68.5226 29.824 68.4266 28.8C68.3306 27.776 68.2826 26.656 68.2826 25.44H69.9626C70.2186 26.976 70.8426 28.288 71.8346 29.376C72.8266 30.432 74.2826 30.96 76.2026 30.96C77.9946 30.96 79.2426 30.656 79.9466 30.048C80.6506 29.408 81.0026 28.624 81.0026 27.696C81.0026 26.768 80.5866 26.032 79.7546 25.488C78.9226 24.912 77.8986 24.352 76.6826 23.808L74.1866 22.752C72.2666 21.92 70.7626 20.976 69.6746 19.92C68.5866 18.864 68.0426 17.552 68.0426 15.984C68.0426 13.904 68.9066 12.32 70.6346 11.232C72.3626 10.144 74.5386 9.60002 77.1626 9.60002C79.1466 9.60002 80.7626 9.77602 82.0106 10.128C83.2906 10.48 84.2506 10.96 84.8906 11.568C85.4666 12.112 85.8026 12.896 85.8986 13.92C85.9946 14.944 86.0426 16.064 86.0426 17.28H84.3626C84.1066 15.744 83.4826 14.448 82.4906 13.392C81.4986 12.304 80.0426 11.76 78.1226 11.76C76.6826 11.76 75.6426 12.08 75.0026 12.72C74.3626 13.328 74.0426 14.096 74.0426 15.024C74.0426 15.888 74.3466 16.592 74.9546 17.136C75.5626 17.648 76.3946 18.128 77.4506 18.576L80.3306 19.776C82.5386 20.704 84.2026 21.68 85.3226 22.704C86.4426 23.696 87.0026 25.04 87.0026 26.736C87.0026 28.816 86.0746 30.4 84.2186 31.488C82.3626 32.576 80.0106 33.12 77.1626 33.12Z" fill="#363636"/>
<path d="M92.5275 32.64V7.20002C92.5275 5.76002 92.3195 4.60802 91.9035 3.74402C91.5195 2.84802 90.6075 2.40002 89.1675 2.40002H88.6875V0.960022H94.4475C95.5675 0.960022 96.4315 1.15202 97.0395 1.53602C97.6795 1.92002 98.1275 2.56002 98.3835 3.45602C98.6395 4.35202 98.7675 5.60002 98.7675 7.20002V15.12H111.728V0.960022H117.967V26.4C117.967 27.84 118.16 29.008 118.544 29.904C118.96 30.768 119.887 31.2 121.327 31.2H121.808V32.64H116.048C114.927 32.64 114.048 32.464 113.408 32.112C112.799 31.728 112.368 31.088 112.112 30.192C111.856 29.264 111.728 28 111.728 26.4V17.28H98.7675V32.64H92.5275Z" fill="#363636"/>
<path d="M142.232 33.6C139.736 33.6 137.432 33.168 135.32 32.304C133.24 31.408 131.416 30.176 129.848 28.608C128.312 27.04 127.112 25.216 126.248 23.136C125.384 21.024 124.952 18.752 124.952 16.32C124.952 13.248 125.608 10.48 126.92 8.016C128.232 5.552 130.072 3.6 132.44 2.16C134.84 0.719999 137.624 0 140.792 0C143.8 0 146.264 0.4 148.184 1.2C150.104 1.968 151.512 2.864 152.408 3.888C153.048 4.688 153.416 5.728 153.512 7.008C153.608 8.288 153.656 9.472 153.656 10.56H152.216C151.608 7.616 150.488 5.488 148.856 4.176C147.224 2.832 145.016 2.16 142.232 2.16C140.312 2.16 138.68 2.544 137.336 3.312C136.024 4.08 134.936 5.136 134.072 6.48C133.24 7.824 132.632 9.344 132.248 11.04C131.864 12.736 131.672 14.496 131.672 16.32C131.672 20.192 132.136 23.248 133.064 25.488C134.024 27.728 135.304 29.328 136.904 30.288C138.504 31.216 140.28 31.68 142.232 31.68C143.672 31.68 144.904 31.568 145.928 31.344C146.952 31.12 147.88 30.816 148.712 30.432V21.888C148.712 21.216 148.808 20.544 149 19.872C149.224 19.2 149.656 18.576 150.296 18C150.936 17.392 151.864 16.912 153.08 16.56C154.328 16.208 155.976 16.032 158.024 16.032V17.232C156.936 17.232 156.152 17.632 155.672 18.432C155.192 19.232 154.952 20.352 154.952 21.792V30.384C153.096 31.504 151.128 32.32 149.048 32.832C146.968 33.344 144.696 33.6 142.232 33.6Z" fill="url(#paint0_linear_20_250)"/>
<defs>
<linearGradient id="paint0_linear_20_250" x1="141.488" y1="0" x2="141.488" y2="33.6" gradientUnits="userSpaceOnUse">
<stop stop-color="#260202"/>
<stop offset="1" stop-color="#983232"/>
</linearGradient>
</defs>
</svg>
